<svg width="41" height="12" viewBox="0 0 41 12" fill="none" xmlns="http://www.w3.org/2000/svg">
<path d="M3.11035 10.2427C3.64677 10.2427 4.11783 10.0962 4.52353 9.80319C4.93374 9.50568 5.19744 9.10674 5.31464 8.60638V7.35548C5.29211 7.35548 5.15462 7.36675 4.90218 7.38929C4.65426 7.41183 4.49198 7.42535 4.41535 7.42986C3.43716 7.5155 2.75424 7.67553 2.36657 7.90993C1.98341 8.14434 1.79183 8.52073 1.79183 9.03913C1.79183 9.43581 1.90903 9.73557 2.14344 9.93842C2.37784 10.1413 2.70015 10.2427 3.11035 10.2427ZM5.56482 11C5.49721 10.7115 5.43185 10.4005 5.36874 10.0669C4.95853 10.4771 4.57312 10.7611 4.2125 10.9189C3.85188 11.0766 3.42815 11.1555 2.94131 11.1555C2.24712 11.1555 1.68815 10.9752 1.26443 10.6146C0.845204 10.2495 0.635594 9.72656 0.635594 9.04589C0.635594 8.28859 0.921836 7.72737 1.49432 7.36224C2.07131 6.99711 2.90074 6.76947 3.9826 6.67932C4.13136 6.66579 4.35449 6.64776 4.652 6.62522C4.95402 6.59818 5.17941 6.57789 5.32817 6.56437V5.90849C5.32817 5.38559 5.20646 4.99792 4.96304 4.74549C4.71962 4.49305 4.33646 4.36684 3.81356 4.36684C3.0833 4.36684 2.34629 4.54715 1.60251 4.90777C1.57997 4.85368 1.52137 4.69816 1.4267 4.44122C1.33204 4.17977 1.28246 4.04453 1.27795 4.03552C1.60701 3.8507 1.99694 3.7042 2.44771 3.59601C2.90299 3.48332 3.36504 3.42697 3.83385 3.42697C4.75794 3.42697 5.42283 3.62982 5.82853 4.03552C6.23873 4.43671 6.44384 5.12189 6.44384 6.09105V11H5.56482ZM8.13424 8.52524V3.58249H9.2702V8.53877C9.2702 8.86332 9.31528 9.1383 9.40543 9.36368C9.50009 9.58907 9.63307 9.76487 9.80437 9.89109C9.98017 10.0128 10.1763 10.1007 10.3926 10.1548C10.6135 10.2089 10.8659 10.2359 11.1499 10.2359C11.7359 10.2359 12.1912 10.1075 12.5158 9.85052C12.8448 9.59358 13.0094 9.15633 13.0094 8.53877V3.58249H14.1453V8.52524C14.1453 8.90389 14.0912 9.24423 13.9831 9.54625C13.8749 9.84827 13.7284 10.1007 13.5436 10.3036C13.3632 10.5019 13.1446 10.6664 12.8877 10.7972C12.6307 10.9279 12.358 11.0225 12.0695 11.0811C11.7855 11.1397 11.479 11.169 11.1499 11.169C10.8254 11.169 10.5188 11.1397 10.2304 11.0811C9.94185 11.0225 9.66688 10.9279 9.40543 10.7972C9.14849 10.6619 8.92536 10.4951 8.73603 10.2968C8.55121 10.0939 8.40471 9.84151 8.29652 9.53949C8.18834 9.23747 8.13424 8.89939 8.13424 8.52524ZM18.1956 11.1352C17.4653 11.1352 16.9469 10.9572 16.6404 10.6011C16.3339 10.245 16.1716 9.67021 16.1535 8.87685V4.42093H15.0514L15.0987 3.67715L16.1468 3.58249L16.5322 1.88532L17.276 1.85827V3.58249H19.3383V4.42093H17.276V8.674C17.276 9.23747 17.3616 9.63415 17.5329 9.86405C17.7042 10.0939 17.9972 10.2089 18.4119 10.2089C18.5607 10.2089 18.883 10.1728 19.3788 10.1007L19.4262 10.9932C18.8897 11.0879 18.4795 11.1352 18.1956 11.1352ZM25.6266 11V6.51704C25.6266 5.77326 25.5071 5.23233 25.2682 4.89425C25.0338 4.55616 24.6214 4.38712 24.0308 4.38712C23.4629 4.38712 22.9828 4.52912 22.5906 4.81311C22.203 5.09709 21.9505 5.46448 21.8333 5.91525C21.7927 6.25333 21.7725 6.62973 21.7725 7.04444V11H20.6433V0.702032L21.7725 0.634416V3.6501C21.7725 3.90705 21.7634 4.22484 21.7454 4.60349C22.381 3.81915 23.224 3.42697 24.2743 3.42697C25.9286 3.42697 26.7558 4.39839 26.7558 6.34123V11H25.6266ZM28.9736 7.30815C28.9736 8.18716 29.1674 8.89262 29.5551 9.42454C29.9473 9.95195 30.5175 10.2157 31.2658 10.2157C32.0051 10.2157 32.5618 9.95195 32.9359 9.42454C33.3146 8.89713 33.5039 8.18716 33.5039 7.29462C33.5039 6.38857 33.3168 5.67634 32.9427 5.15795C32.573 4.63505 32.0073 4.3736 31.2455 4.3736C30.5062 4.3736 29.9428 4.63956 29.5551 5.17147C29.1674 5.70339 28.9736 6.41561 28.9736 7.30815ZM34.6737 7.28786C34.6737 8.43734 34.3671 9.37045 33.7541 10.0872C33.141 10.7994 32.2936 11.1555 31.2117 11.1555C30.1704 11.1555 29.341 10.7949 28.7234 10.0737C28.1104 9.35242 27.8038 8.42607 27.8038 7.29462C27.8038 6.14064 28.1126 5.20753 28.7302 4.49531C29.3477 3.78308 30.1952 3.42697 31.2726 3.42697C32.3319 3.42697 33.1636 3.78534 33.7676 4.50207C34.3716 5.2143 34.6737 6.14289 34.6737 7.28786ZM39.6029 3.51487C39.8057 3.51487 39.9906 3.5284 40.1573 3.55544L40.1168 4.59673C39.9094 4.56067 39.7291 4.54264 39.5758 4.54264C38.9448 4.54264 38.4309 4.76352 38.0342 5.20528C37.642 5.64253 37.4459 6.18572 37.4459 6.83483V11H36.3167C36.3122 6.44717 36.31 3.97466 36.31 3.58249H37.2498L37.358 4.91453C37.615 4.49531 37.9418 4.15723 38.3385 3.90029C38.7351 3.64334 39.1566 3.51487 39.6029 3.51487Z" fill="white"/>
</svg>
