<svg width="88" height="26" viewBox="0 0 88 26" fill="none" xmlns="http://www.w3.org/2000/svg">
<path d="M0.414457 18.1513C1.01453 18.1342 1.44315 17.997 1.70033 17.7398C1.9575 17.4827 2.10323 17.1826 2.13752 16.8397C2.17181 16.4797 2.18896 15.8625 2.18896 14.9881V3.87817C2.18896 3.15809 2.21467 2.54087 2.26611 2.02652L0.414457 2.12939V0.997826H12.7845L12.9131 5.49837H12.0644C12.0644 4.09249 11.7558 3.13237 11.1386 2.61802C10.5385 2.10367 9.68986 1.86364 8.59259 1.89794L6.38089 1.94937C5.76367 1.96651 5.31791 2.08653 5.04359 2.30941C4.76927 2.51515 4.59782 2.81519 4.52924 3.20952C4.46066 3.58671 4.42637 4.18678 4.42637 5.00974V9.12452L9.26124 9.15024L9.08122 6.93854H10.2128V12.3392H9.36411C9.36411 11.7048 9.28696 11.2248 9.13265 10.899C8.97835 10.5561 8.73832 10.3332 8.41257 10.2304C8.10396 10.1104 7.66676 10.0503 7.10098 10.0503L6.30374 10.0761L4.42637 10.1532V16.0425C4.42637 16.934 4.40065 17.6027 4.34922 18.0485L9.26124 17.9713C10.4614 17.9542 11.3786 17.6541 12.013 17.0712C12.6474 16.4711 12.9645 15.4424 12.9645 13.9851H13.8389L13.6846 19H0.414457V18.1513ZM21.4017 19.4115C20.5958 19.4115 19.8586 19.3 19.19 19.0772C18.5213 18.8714 17.947 18.6057 17.4669 18.2799L17.5698 19.18H16.4896L16.3353 14.7566H17.1326C17.1669 15.4596 17.3555 16.0854 17.6984 16.634C18.0584 17.1826 18.5213 17.6198 19.0871 17.9456C19.67 18.2542 20.2872 18.4085 20.9387 18.4085C21.676 18.4085 22.3275 18.2371 22.8933 17.8942C23.4762 17.5341 23.7677 17.0283 23.7677 16.3768C23.7677 15.8968 23.6219 15.4939 23.3305 15.1681C23.0561 14.8424 22.7047 14.5766 22.276 14.3709C21.8646 14.148 21.2816 13.8908 20.5273 13.5993C19.6186 13.2564 18.8899 12.9393 18.3413 12.6478C17.7926 12.3392 17.3212 11.9277 16.9268 11.4134C16.5325 10.899 16.3353 10.2475 16.3353 9.45885C16.3353 8.89307 16.4725 8.32728 16.7468 7.7615C17.0211 7.19572 17.484 6.71566 18.1355 6.32133C18.7871 5.92699 19.6529 5.72983 20.733 5.72983C21.2645 5.72983 21.8046 5.81555 22.3532 5.987C22.919 6.15845 23.4419 6.44134 23.922 6.83567L23.8705 5.85841H24.9507V10.359H24.1277C24.0763 9.36455 23.7677 8.5073 23.2019 7.78722C22.6532 7.04999 21.8731 6.68137 20.8616 6.68137C20.0901 6.68137 19.4729 6.87854 19.0099 7.27287C18.5642 7.65006 18.3413 8.1044 18.3413 8.63589C18.3413 9.13309 18.487 9.55315 18.7785 9.89604C19.0871 10.2389 19.4643 10.5304 19.91 10.7704C20.3558 11.0105 20.9559 11.2762 21.7103 11.5677C22.6018 11.9277 23.3219 12.262 23.8705 12.5707C24.4192 12.8793 24.8821 13.2907 25.2593 13.8051C25.6536 14.3023 25.8508 14.9109 25.8508 15.631C25.8508 16.454 25.6365 17.1483 25.2078 17.7141C24.7964 18.2799 24.2477 18.7085 23.5619 19C22.8933 19.2743 22.1732 19.4115 21.4017 19.4115ZM34.309 19.4115C33.1431 19.4115 32.0716 19.1457 31.0943 18.6142C30.1342 18.0827 29.3712 17.3198 28.8054 16.3254C28.2397 15.331 27.9568 14.1566 27.9568 12.8021C27.9568 11.602 28.2397 10.4618 28.8054 9.3817C29.3884 8.28442 30.1856 7.40146 31.1972 6.7328C32.2259 6.06415 33.3831 5.72983 34.669 5.72983C35.5948 5.72983 36.4178 5.87556 37.1379 6.16702C37.858 6.45849 38.4152 6.84425 38.8095 7.3243C39.221 7.80436 39.4267 8.32728 39.4267 8.89307C39.4267 9.2874 39.3153 9.61315 39.0924 9.87033C38.8695 10.1275 38.5609 10.2561 38.1666 10.2561C37.7894 10.2561 37.5065 10.1361 37.3179 9.89604C37.1293 9.63887 37.035 9.37312 37.035 9.0988C37.035 8.67018 37.1636 8.32728 37.4208 8.07011C37.2322 7.53862 36.8636 7.17857 36.3149 6.98998C35.7834 6.78424 35.2519 6.68137 34.7204 6.68137C33.9318 6.68137 33.2203 6.89568 32.5859 7.3243C31.9687 7.75293 31.4801 8.37872 31.12 9.20167C30.76 10.0246 30.5799 11.0105 30.5799 12.1592C30.5799 13.3079 30.76 14.328 31.12 15.2195C31.4972 16.1111 32.0201 16.814 32.6888 17.3284C33.3574 17.8256 34.1289 18.0742 35.0033 18.0742C35.7749 18.0742 36.5292 17.8684 37.2665 17.457C38.0208 17.0283 38.6123 16.4968 39.041 15.8625L39.7096 16.3768C39.0753 17.3712 38.2523 18.1256 37.2408 18.64C36.2463 19.1543 35.2691 19.4115 34.309 19.4115ZM45.2716 19.4115C44.02 19.4115 43.0599 19.1286 42.3913 18.5628C41.7398 17.997 41.414 17.2598 41.414 16.3511C41.414 15.3567 41.8083 14.5166 42.597 13.8308C43.4028 13.145 44.4058 12.6392 45.6059 12.3135C46.8232 11.9706 48.0405 11.8077 49.2578 11.8248V10.2304C49.2578 9.11595 49.0949 8.25013 48.7692 7.63291C48.4434 6.99855 47.7491 6.68137 46.6861 6.68137C46.1546 6.68137 45.6488 6.79281 45.1687 7.0157C44.6887 7.23858 44.3372 7.57291 44.1143 8.01867C44.3372 8.2587 44.4487 8.58446 44.4487 8.99593C44.4487 9.25311 44.3544 9.50171 44.1658 9.74174C43.9772 9.96462 43.7029 10.0761 43.3428 10.0761C42.9828 10.0761 42.6999 9.96462 42.4941 9.74174C42.2884 9.50171 42.1855 9.1931 42.1855 8.81591C42.1855 8.25013 42.3998 7.73578 42.8285 7.27287C43.2742 6.79281 43.8829 6.41562 44.6544 6.1413C45.4431 5.86699 46.3175 5.72983 47.2776 5.72983C48.7177 5.72983 49.7807 6.11559 50.4665 6.88711C51.1523 7.64149 51.4866 8.84163 51.4695 10.4875L51.4438 16.274C51.4438 16.8226 51.4095 17.4055 51.3409 18.0227L53.1669 17.9199V19H49.4893C49.4378 18.7428 49.3778 18.2542 49.3092 17.5341C48.0577 18.7857 46.7118 19.4115 45.2716 19.4115ZM45.8631 17.9456C46.5146 17.9456 47.1061 17.8256 47.6376 17.5855C48.1691 17.3284 48.7092 16.9426 49.2578 16.4283C49.2407 16.1711 49.2321 15.7339 49.2321 15.1167L49.2578 12.6992C47.8519 12.7507 46.6003 13.0421 45.5031 13.5736C44.4058 14.088 43.8572 14.8852 43.8572 15.9653C43.8572 16.5997 44.0457 17.0883 44.4229 17.4312C44.8001 17.7741 45.2802 17.9456 45.8631 17.9456ZM54.7002 24.7864C55.1975 24.7864 55.5489 24.6578 55.7547 24.4007C55.9775 24.1606 56.1061 23.852 56.1404 23.4748C56.1747 23.1148 56.2004 22.5061 56.2176 21.6489L56.269 9.22739C56.269 8.5073 56.3033 7.95009 56.3719 7.55576L54.5459 7.65863V6.5785C55.5575 6.5785 56.2519 6.52707 56.6291 6.4242C57.0062 6.30418 57.3149 6.12416 57.5549 5.88413H58.3264C58.395 6.72423 58.4293 7.18714 58.4293 7.27287C58.9436 6.80996 59.5608 6.44134 60.2809 6.16702C61.001 5.87556 61.7125 5.72983 62.4155 5.72983C63.427 5.72983 64.3614 5.99557 65.2187 6.52707C66.0759 7.04141 66.7617 7.78722 67.2761 8.76448C67.8075 9.72459 68.0733 10.839 68.0733 12.1077C68.0733 13.5308 67.7733 14.7995 67.1732 15.9139C66.5731 17.0112 65.7673 17.8684 64.7557 18.4857C63.7613 19.1029 62.6812 19.4115 61.5154 19.4115C60.3324 19.4115 59.3037 19.1286 58.4293 18.5628V22.8319C58.4293 23.6034 58.395 24.1863 58.3264 24.5807L59.9466 24.5035V25.5579H54.7002V24.7864ZM61.4639 18.3828C62.2697 18.3828 62.9641 18.1342 63.547 17.637C64.1471 17.1398 64.61 16.4454 64.9358 15.5539C65.2615 14.6623 65.4244 13.6508 65.4244 12.5192C65.4244 10.9762 65.0901 9.67316 64.4214 8.61017C63.7699 7.53004 62.7927 6.98998 61.4896 6.98998C60.9239 6.98998 60.3752 7.12714 59.8437 7.40146C59.3122 7.67578 58.8493 8.01867 58.455 8.43015C58.4721 8.55017 58.4807 9.07309 58.4807 9.99891L58.455 17.3798C59.3294 18.0485 60.3324 18.3828 61.4639 18.3828ZM76.5004 19.4115C75.3174 19.4115 74.2458 19.1372 73.2857 18.5885C72.3427 18.0227 71.5969 17.2255 71.0483 16.1968C70.4996 15.151 70.2253 13.9508 70.2253 12.5964C70.2253 11.3962 70.4996 10.2732 71.0483 9.22739C71.5969 8.16441 72.3599 7.31573 73.3371 6.68137C74.3315 6.04701 75.4545 5.72983 76.7061 5.72983C77.6834 5.72983 78.5663 5.94414 79.355 6.37276C80.1437 6.80138 80.7694 7.44432 81.2324 8.30157C81.6953 9.14167 81.9267 10.1789 81.9267 11.4134L72.8742 11.5677C72.8571 13.6251 73.1914 15.2281 73.8772 16.3768C74.5801 17.5255 75.6603 18.0999 77.1176 18.0999C77.9062 18.0999 78.7121 17.8942 79.535 17.4827C80.3751 17.0712 81.018 16.5654 81.4638 15.9653L82.081 16.4797C81.4295 17.4741 80.5809 18.2113 79.535 18.6914C78.5063 19.1714 77.4948 19.4115 76.5004 19.4115ZM79.5093 10.4875C79.5093 9.45885 79.2778 8.57588 78.8149 7.83865C78.352 7.10142 77.6576 6.7328 76.7318 6.7328C74.6058 6.7328 73.3457 7.98438 72.9514 10.4875H79.5093ZM86.2213 19.4115C85.8099 19.4115 85.4584 19.2572 85.1669 18.9486C84.8755 18.6228 84.7297 18.2285 84.7297 17.7656C84.7297 17.3027 84.8755 16.9083 85.1669 16.5826C85.4755 16.2568 85.8356 16.0939 86.247 16.0939C86.6757 16.0939 87.0271 16.2568 87.3015 16.5826C87.5929 16.9083 87.7387 17.3027 87.7387 17.7656C87.7387 18.2285 87.5844 18.6228 87.2757 18.9486C86.9843 19.2572 86.6328 19.4115 86.2213 19.4115Z" fill="white"/>
</svg>
