<svg width="155" height="44" viewBox="0 0 155 44" fill="none" xmlns="http://www.w3.org/2000/svg">
<path d="M0.5025 30.4985C1.56417 30.4682 2.3225 30.2255 2.7775 29.7705C3.2325 29.3155 3.49033 28.7847 3.551 28.178C3.61167 27.541 3.642 26.449 3.642 24.902V5.246C3.642 3.972 3.6875 2.88 3.7785 1.97L0.5025 2.152V0.149998H22.388L22.6155 8.1125H21.114C21.114 5.62516 20.568 3.9265 19.476 3.0165C18.4143 2.1065 16.9128 1.68183 14.9715 1.7425L11.0585 1.8335C9.9665 1.86383 9.17783 2.07616 8.6925 2.4705C8.20717 2.8345 7.90383 3.36533 7.7825 4.063C7.66117 4.73033 7.6005 5.792 7.6005 7.248V14.528L16.1545 14.5735L15.836 10.6605H17.838V20.2155H16.3365C16.3365 19.0932 16.2 18.2438 15.927 17.6675C15.654 17.0608 15.2293 16.6665 14.653 16.4845C14.107 16.2722 13.3335 16.166 12.3325 16.166L10.922 16.2115L7.6005 16.348V26.7675C7.6005 28.3448 7.555 29.5278 7.464 30.3165L16.1545 30.18C18.2778 30.1497 19.9007 29.6188 21.023 28.5875C22.1453 27.5258 22.7065 25.7058 22.7065 23.1275H24.2535L23.9805 32H0.5025V30.4985ZM37.6337 32.728C36.208 32.728 34.9037 32.5308 33.7207 32.1365C32.5377 31.7725 31.5215 31.3023 30.6722 30.726L30.8542 32.3185H28.9432L28.6702 24.4925H30.0807C30.1414 25.7362 30.475 26.8433 31.0817 27.814C31.7187 28.7847 32.5377 29.5582 33.5387 30.1345C34.57 30.6805 35.662 30.9535 36.8147 30.9535C38.119 30.9535 39.2717 30.6502 40.2727 30.0435C41.304 29.4065 41.8197 28.5117 41.8197 27.359C41.8197 26.5097 41.5619 25.7968 41.0462 25.2205C40.5609 24.6442 39.939 24.174 39.1807 23.81C38.4527 23.4157 37.4214 22.9607 36.0867 22.445C34.479 21.8383 33.1899 21.2772 32.2192 20.7615C31.2485 20.2155 30.4144 19.4875 29.7167 18.5775C29.019 17.6675 28.6702 16.5148 28.6702 15.1195C28.6702 14.1185 28.9129 13.1175 29.3982 12.1165C29.8835 11.1155 30.7025 10.2662 31.8552 9.5685C33.0079 8.87083 34.5397 8.522 36.4507 8.522C37.391 8.522 38.3465 8.67367 39.3172 8.977C40.3182 9.28033 41.2434 9.78083 42.0927 10.4785L42.0017 8.7495H43.9127V16.712H42.4567C42.3657 14.9527 41.8197 13.436 40.8187 12.162C39.848 10.8577 38.4679 10.2055 36.6782 10.2055C35.3132 10.2055 34.2212 10.5543 33.4022 11.252C32.6135 11.9193 32.2192 12.7232 32.2192 13.6635C32.2192 14.5432 32.477 15.2863 32.9927 15.893C33.5387 16.4997 34.206 17.0153 34.9947 17.44C35.7834 17.8647 36.845 18.3348 38.1797 18.8505C39.757 19.4875 41.031 20.079 42.0017 20.625C42.9724 21.171 43.7914 21.899 44.4587 22.809C45.1564 23.6887 45.5052 24.7655 45.5052 26.0395C45.5052 27.4955 45.126 28.724 44.3677 29.725C43.6397 30.726 42.669 31.4843 41.4557 32C40.2727 32.4853 38.9987 32.728 37.6337 32.728ZM60.4697 32.728C58.4071 32.728 56.5112 32.2578 54.7822 31.3175C53.0836 30.3772 51.7337 29.0273 50.7327 27.268C49.7317 25.5087 49.2312 23.4308 49.2312 21.0345C49.2312 18.9112 49.7317 16.894 50.7327 14.983C51.7641 13.0417 53.1746 11.4795 54.9642 10.2965C56.7842 9.1135 58.8317 8.522 61.1067 8.522C62.7447 8.522 64.2007 8.77983 65.4747 9.2955C66.7487 9.81117 67.7346 10.4937 68.4322 11.343C69.1602 12.1923 69.5242 13.1175 69.5242 14.1185C69.5242 14.8162 69.3271 15.3925 68.9327 15.8475C68.5384 16.3025 67.9924 16.53 67.2947 16.53C66.6274 16.53 66.1269 16.3177 65.7932 15.893C65.4596 15.438 65.2927 14.9678 65.2927 14.4825C65.2927 13.7242 65.5202 13.1175 65.9752 12.6625C65.6416 11.7222 64.9894 11.0852 64.0187 10.7515C63.0784 10.3875 62.1381 10.2055 61.1977 10.2055C59.8024 10.2055 58.5436 10.5847 57.4212 11.343C56.3292 12.1013 55.4647 13.2085 54.8277 14.6645C54.1907 16.1205 53.8722 17.8647 53.8722 19.897C53.8722 21.9293 54.1907 23.7342 54.8277 25.3115C55.4951 26.8888 56.4202 28.1325 57.6032 29.0425C58.7862 29.9222 60.1512 30.362 61.6982 30.362C63.0632 30.362 64.3979 29.998 65.7022 29.27C67.0369 28.5117 68.0834 27.5713 68.8417 26.449L70.0247 27.359C68.9024 29.1183 67.4464 30.453 65.6567 31.363C63.8974 32.273 62.1684 32.728 60.4697 32.728ZM79.8652 32.728C77.6508 32.728 75.9522 32.2275 74.7692 31.2265C73.6165 30.2255 73.0402 28.9212 73.0402 27.3135C73.0402 25.5542 73.7378 24.0678 75.1332 22.8545C76.5588 21.6412 78.3333 20.7463 80.4567 20.17C82.6103 19.5633 84.764 19.2752 86.9177 19.3055V16.4845C86.9177 14.5128 86.6295 12.981 86.0532 11.889C85.4768 10.7667 84.2483 10.2055 82.3677 10.2055C81.4273 10.2055 80.5325 10.4027 79.6832 10.797C78.8338 11.1913 78.212 11.7828 77.8177 12.5715C78.212 12.9962 78.4092 13.5725 78.4092 14.3005C78.4092 14.7555 78.2423 15.1953 77.9087 15.62C77.575 16.0143 77.0897 16.2115 76.4527 16.2115C75.8157 16.2115 75.3152 16.0143 74.9512 15.62C74.5872 15.1953 74.4052 14.6493 74.4052 13.982C74.4052 12.981 74.7843 12.071 75.5427 11.252C76.3313 10.4027 77.4082 9.73533 78.7732 9.25C80.1685 8.76467 81.7155 8.522 83.4142 8.522C85.9622 8.522 87.8428 9.2045 89.0562 10.5695C90.2695 11.9042 90.861 14.0275 90.8307 16.9395L90.7852 27.177C90.7852 28.1477 90.7245 29.179 90.6032 30.271L93.8337 30.089V32H87.3272C87.2362 31.545 87.13 30.6805 87.0087 29.4065C84.7943 31.6208 82.4132 32.728 79.8652 32.728ZM80.9117 30.1345C82.0643 30.1345 83.1108 29.9222 84.0512 29.4975C84.9915 29.0425 85.947 28.36 86.9177 27.45C86.8873 26.995 86.8722 26.2215 86.8722 25.1295L86.9177 20.8525C84.4303 20.9435 82.216 21.4592 80.2747 22.3995C78.3333 23.3095 77.3627 24.72 77.3627 26.631C77.3627 27.7533 77.6963 28.6178 78.3637 29.2245C79.031 29.8312 79.8803 30.1345 80.9117 30.1345ZM96.5466 42.2375C97.4263 42.2375 98.0481 42.01 98.4121 41.555C98.8064 41.1303 99.0339 40.5843 99.0946 39.917C99.1553 39.28 99.2008 38.2032 99.2311 36.6865L99.3221 14.71C99.3221 13.436 99.3828 12.4502 99.5041 11.7525L96.2736 11.9345V10.0235C98.0633 10.0235 99.2918 9.9325 99.9591 9.7505C100.626 9.53817 101.172 9.21967 101.597 8.795H102.962C103.083 10.2813 103.144 11.1003 103.144 11.252C104.054 10.433 105.146 9.78083 106.42 9.2955C107.694 8.77983 108.953 8.522 110.197 8.522C111.986 8.522 113.639 8.99217 115.156 9.9325C116.673 10.8425 117.886 12.162 118.796 13.891C119.736 15.5897 120.207 17.5613 120.207 19.806C120.207 22.3237 119.676 24.5683 118.614 26.54C117.552 28.4813 116.127 29.998 114.337 31.09C112.578 32.182 110.667 32.728 108.604 32.728C106.511 32.728 104.691 32.2275 103.144 31.2265V38.7795C103.144 40.1445 103.083 41.1758 102.962 41.8735L105.829 41.737V43.6025H96.5466V42.2375ZM108.513 30.908C109.939 30.908 111.167 30.4682 112.199 29.5885C113.26 28.7088 114.079 27.4803 114.656 25.903C115.232 24.3257 115.52 22.536 115.52 20.534C115.52 17.804 114.929 15.4987 113.746 13.618C112.593 11.707 110.864 10.7515 108.559 10.7515C107.558 10.7515 106.587 10.9942 105.647 11.4795C104.706 11.9648 103.887 12.5715 103.19 13.2995C103.22 13.5118 103.235 14.437 103.235 16.075L103.19 29.1335C104.737 30.3165 106.511 30.908 108.513 30.908ZM135.116 32.728C133.023 32.728 131.127 32.2427 129.429 31.272C127.76 30.271 126.441 28.8605 125.47 27.0405C124.499 25.1902 124.014 23.0668 124.014 20.6705C124.014 18.5472 124.499 16.5603 125.47 14.71C126.441 12.8293 127.791 11.3278 129.52 10.2055C131.279 9.08317 133.266 8.522 135.48 8.522C137.209 8.522 138.771 8.90117 140.167 9.6595C141.562 10.4178 142.669 11.5553 143.488 13.072C144.307 14.5583 144.717 16.3935 144.717 18.5775L128.701 18.8505C128.67 22.4905 129.262 25.3267 130.475 27.359C131.719 29.3913 133.63 30.4075 136.208 30.4075C137.603 30.4075 139.029 30.0435 140.485 29.3155C141.971 28.5875 143.109 27.6927 143.898 26.631L144.99 27.541C143.837 29.3003 142.335 30.6047 140.485 31.454C138.665 32.3033 136.875 32.728 135.116 32.728ZM140.44 16.9395C140.44 15.1195 140.03 13.5573 139.211 12.253C138.392 10.9487 137.164 10.2965 135.526 10.2965C131.764 10.2965 129.535 12.5108 128.837 16.9395H140.44ZM152.315 32.728C151.587 32.728 150.965 32.455 150.449 31.909C149.934 31.3327 149.676 30.635 149.676 29.816C149.676 28.997 149.934 28.2993 150.449 27.723C150.995 27.1467 151.632 26.8585 152.36 26.8585C153.119 26.8585 153.74 27.1467 154.226 27.723C154.741 28.2993 154.999 28.997 154.999 29.816C154.999 30.635 154.726 31.3327 154.18 31.909C153.665 32.455 153.043 32.728 152.315 32.728Z" fill="white"/>
</svg>
